<?xml version="1.0" encoding="iso-8859-1"?>
<!-- Uploaded to: SVG Repo, www.svgrepo.com, Generator: SVG Repo Mixer Tools -->
<svg fill="#000000" height="800px" width="800px" version="1.1" id="Layer_1" xmlns="http://www.w3.org/2000/svg" xmlns:xlink="http://www.w3.org/1999/xlink" 
	 viewBox="0 0 512.001 512.001" xml:space="preserve">
<g>
	<g>
		<path d="M507.243,11.335c-5.454-10.365-18.282-14.341-28.642-8.891c-28.058,14.768-57.214,26.555-87.022,35.376
			c-0.147,0.041-0.29,0.088-0.435,0.131c-88.218,26.018-182.147,26.009-270.362-0.021c-0.112-0.034-0.222-0.071-0.335-0.102
			C90.63,29.006,61.465,17.214,33.399,2.444C23.038-3.01,10.213,0.971,4.758,11.335c-5.453,10.364-1.473,23.186,8.889,28.642
			c27.282,14.358,55.519,26.12,84.363,35.314l137.829,422.082c0.075,0.23,0.17,0.45,0.252,0.676
			c0.085,0.233,0.165,0.466,0.259,0.696c0.191,0.471,0.399,0.929,0.619,1.38c0.051,0.105,0.095,0.212,0.147,0.315
			c0.301,0.59,0.626,1.162,0.975,1.713c0.007,0.013,0.017,0.024,0.024,0.035c0.332,0.523,0.69,1.025,1.063,1.511
			c0.096,0.124,0.198,0.245,0.297,0.368c0.295,0.368,0.601,0.725,0.919,1.07c0.14,0.151,0.28,0.301,0.424,0.45
			c0.304,0.311,0.618,0.609,0.939,0.901c0.158,0.144,0.312,0.291,0.475,0.43c0.444,0.379,0.901,0.739,1.371,1.079
			c0.158,0.115,0.325,0.218,0.488,0.328c0.38,0.257,0.765,0.508,1.161,0.739c0.211,0.123,0.427,0.238,0.642,0.355
			c0.372,0.202,0.749,0.392,1.132,0.571c0.198,0.092,0.394,0.185,0.597,0.271c0.565,0.243,1.139,0.468,1.725,0.662
			c0.023,0.007,0.042,0.017,0.065,0.025c0.004,0.001,0.008,0.003,0.013,0.004c1.586,0.517,3.237,0.852,4.924,0.985
			c0.351,0.028,0.698,0.031,1.048,0.041c0.198,0.006,0.394,0.024,0.594,0.024c0.001,0,0.003,0,0.004,0s0.003,0,0.004,0
			c0.199,0,0.397-0.018,0.597-0.024c0.348-0.01,0.696-0.014,1.045-0.041c1.685-0.131,3.335-0.466,4.92-0.984
			c0.006-0.001,0.011-0.003,0.018-0.004c0.03-0.01,0.058-0.024,0.088-0.034c0.575-0.191,1.139-0.411,1.695-0.649
			c0.208-0.089,0.411-0.187,0.616-0.281c0.375-0.175,0.742-0.361,1.106-0.557c0.223-0.12,0.448-0.24,0.666-0.368
			c0.377-0.222,0.746-0.461,1.11-0.707c0.202-0.136,0.406-0.269,0.602-0.411c0.443-0.322,0.874-0.66,1.292-1.016
			c0.172-0.147,0.335-0.302,0.502-0.454c0.311-0.283,0.616-0.573,0.91-0.874c0.15-0.154,0.298-0.311,0.443-0.469
			c0.31-0.338,0.608-0.687,0.898-1.046c0.105-0.13,0.212-0.257,0.314-0.389c0.366-0.478,0.717-0.971,1.043-1.484
			c0.013-0.02,0.028-0.04,0.041-0.061c0.348-0.55,0.673-1.12,0.973-1.708c0.055-0.107,0.1-0.219,0.153-0.327
			c0.218-0.447,0.426-0.901,0.615-1.368c0.093-0.23,0.174-0.465,0.26-0.698c0.082-0.226,0.175-0.444,0.25-0.674L413.98,75.293
			c28.847-9.196,57.088-20.958,84.374-35.318C508.716,34.521,512.696,21.699,507.243,11.335z M255.996,422.476l-31.798-97.379
			h63.597L255.996,422.476z M301.643,282.686h-91.295l-38.267-117.19h167.83L301.643,282.686z M353.761,123.086H158.232
			l-11.359-34.787c35.96,7.715,72.544,11.574,109.128,11.574c36.581,0,73.162-3.859,109.118-11.573L353.761,123.086z"/>
	</g>
</g>
</svg>